{
    "asset" : {
        "generator" : "Khronos glTF Blender I/O v1.7.33",
        "version" : "2.0"
    },
    "extensionsUsed" : [
        "KHR_lights_punctual"
    ],
    "extensionsRequired" : [
        "KHR_lights_punctual"
    ],
    "extensions" : {
        "KHR_lights_punctual" : {
            "lights" : [
                {
                    "color" : [
                        1,
                        1,
                        1
                    ],
                    "intensity" : 4000,
                    "type" : "point",
                    "name" : "Point"
                },
                {
                    "color" : [
                        1,
                        1,
                        1
                    ],
                    "intensity" : 1000,
                    "type" : "point",
                    "name" : "Point.001"
                },
                {
                    "color" : [
                        1,
                        1,
                        1
                    ],
                    "intensity" : 1000,
                    "type" : "point",
                    "name" : "Point.002"
                }
            ]
        }
    },
    "scene" : 0,
    "scenes" : [
        {
            "name" : "Scene",
            "nodes" : [
                0,
                2,
                3,
                4,
                5,
                7,
                8,
                10
            ]
        }
    ],
    "nodes" : [
        {
            "mesh" : 0,
            "name" : "room",
            "rotation" : [
                0,
                -0.7071067690849304,
                0,
                0.7071068286895752
            ],
            "scale" : [
                14.77187728881836,
                14.77187728881836,
                14.77187728881836
            ],
            "translation" : [
                -3.3105626106262207,
                0,
                0.2040870189666748
            ]
        },
        {
            "extensions" : {
                "KHR_lights_punctual" : {
                    "light" : 0
                }
            },
            "name" : "pointLightMiddle_Orientation",
            "rotation" : [
                -0.7071067690849304,
                0,
                0,
                0.7071067690849304
            ]
        },
        {
            "children" : [
                1
            ],
            "name" : "pointLightMiddle",
            "rotation" : [
                0,
                -0.7071067690849304,
                0,
                0.7071068286895752
            ],
            "translation" : [
                -3.3105626106262207,
                0,
                4.2890729904174805
            ]
        },
        {
            "mesh" : 1,
            "name" : "back",
            "rotation" : [
                0.5,
                -0.4999999701976776,
                -0.5,
                0.5000000596046448
            ],
            "scale" : [
                6.023856163024902,
                6.023856163024902,
                6.023856163024902
            ],
            "translation" : [
                -3.3105640411376953,
                -0.5350648760795593,
                -13.412890434265137
            ]
        },
        {
            "name" : "areaLight",
            "rotation" : [
                0,
                0,
                -1,
                7.549790126404332e-08
            ],
            "scale" : [
                7.892668724060059,
                1.166672706604004,
                23.80084800720215
            ],
            "translation" : [
                7.77164363861084,
                0.06781385838985443,
                2.563987970352173
            ]
        },
        {
            "mesh" : 2,
            "name" : "ceiling",
            "rotation" : [
                0.7071067094802856,
                0,
                -0.7071068286895752,
                1.0088809432318158e-07
            ],
            "scale" : [
                9.890716552734375,
                9.890716552734375,
                9.890716552734375
            ],
            "translation" : [
                -3.3105645179748535,
                12.18696117401123,
                0.3448150157928467
            ]
        },
        {
            "extensions" : {
                "KHR_lights_punctual" : {
                    "light" : 1
                }
            },
            "name" : "pointLightBottom_Orientation",
            "rotation" : [
                -0.7071067690849304,
                0,
                0,
                0.7071067690849304
            ]
        },
        {
            "children" : [
                6
            ],
            "name" : "pointLightBottom",
            "translation" : [
                -7.3229804039001465,
                -12.030123710632324,
                11.754054069519043
            ]
        },
        {
            "mesh" : 3,
            "name" : "floor",
            "rotation" : [
                0,
                0.7071067094802856,
                0,
                0.7071068286895752
            ],
            "translation" : [
                -3.3105645179748535,
                -13.015069961547852,
                0.3448150157928467
            ]
        },
        {
            "extensions" : {
                "KHR_lights_punctual" : {
                    "light" : 2
                }
            },
            "name" : "pointLightTop_Orientation",
            "rotation" : [
                -0.7071067690849304,
                0,
                0,
                0.7071067690849304
            ]
        },
        {
            "children" : [
                9
            ],
            "name" : "pointLightTop",
            "translation" : [
                -7.623810768127441,
                6.356097221374512,
                13.496240615844727
            ]
        }
    ],
    "materials" : [
        {
            "doubleSided" : true,
            "name" : "black",
            "pbrMetallicRoughness" : {
                "baseColorFactor" : [
                    0.0017244074260815978,
                    0.00177137297578156,
                    0.0020000000949949026,
                    1
                ],
                "metallicFactor" : 0
            }
        },
        {
            "doubleSided" : true,
            "name" : "gray",
            "pbrMetallicRoughness" : {
                "baseColorFactor" : [
                    0.049548838287591934,
                    0.049548838287591934,
                    0.049548838287591934,
                    1
                ],
                "metallicFactor" : 0
            }
        },
        {
            "doubleSided" : true,
            "name" : "white",
            "pbrMetallicRoughness" : {
                "metallicFactor" : 0
            }
        }
    ],
    "meshes" : [
        {
            "name" : "Cube.001",
            "primitives" : [
                {
                    "attributes" : {
                        "POSITION" : 0,
                        "NORMAL" : 1
                    },
                    "indices" : 2,
                    "material" : 0
                }
            ]
        },
        {
            "name" : "Plane",
            "primitives" : [
                {
                    "attributes" : {
                        "POSITION" : 3,
                        "NORMAL" : 4
                    },
                    "indices" : 5,
                    "material" : 1
                }
            ]
        },
        {
            "name" : "Plane.001",
            "primitives" : [
                {
                    "attributes" : {
                        "POSITION" : 6,
                        "NORMAL" : 7
                    },
                    "indices" : 8,
                    "material" : 2
                }
            ]
        },
        {
            "name" : "Plane.002",
            "primitives" : [
                {
                    "attributes" : {
                        "POSITION" : 9,
                        "NORMAL" : 10
                    },
                    "indices" : 11,
                    "material" : 1
                }
            ]
        }
    ],
    "accessors" : [
        {
            "bufferView" : 0,
            "componentType" : 5126,
            "count" : 1538,
            "max" : [
                1.000000238418579,
                1.000000238418579,
                1.000000238418579
            ],
            "min" : [
                -1.000000238418579,
                -1.000000238418579,
                -1.000000238418579
            ],
            "type" : "VEC3"
        },
        {
            "bufferView" : 1,
            "componentType" : 5126,
            "count" : 1538,
            "type" : "VEC3"
        },
        {
            "bufferView" : 2,
            "componentType" : 5123,
            "count" : 9216,
            "type" : "SCALAR"
        },
        {
            "bufferView" : 3,
            "componentType" : 5126,
            "count" : 572,
            "max" : [
                1.5147061347961426,
                2.5499449662902407e-08,
                1.1681314706802368
            ],
            "min" : [
                -1.5147061347961426,
                -2.5499392819483546e-08,
                -1.1681314706802368
            ],
            "type" : "VEC3"
        },
        {
            "bufferView" : 4,
            "componentType" : 5126,
            "count" : 572,
            "type" : "VEC3"
        },
        {
            "bufferView" : 5,
            "componentType" : 5123,
            "count" : 864,
            "type" : "SCALAR"
        },
        {
            "bufferView" : 6,
            "componentType" : 5126,
            "count" : 562,
            "max" : [
                1.3377500772476196,
                2.5499428346620334e-08,
                1.168131709098816
            ],
            "min" : [
                -1.3377500772476196,
                -2.5499428346620334e-08,
                -1.1681315898895264
            ],
            "type" : "VEC3"
        },
        {
            "bufferView" : 7,
            "componentType" : 5126,
            "count" : 562,
            "type" : "VEC3"
        },
        {
            "bufferView" : 8,
            "componentType" : 5123,
            "count" : 864,
            "type" : "SCALAR"
        },
        {
            "bufferView" : 9,
            "componentType" : 5126,
            "count" : 574,
            "max" : [
                13.224843978881836,
                2.5208439069501765e-07,
                12.799707412719727
            ],
            "min" : [
                -13.224843978881836,
                -2.5208439069501765e-07,
                -12.799707412719727
            ],
            "type" : "VEC3"
        },
        {
            "bufferView" : 10,
            "componentType" : 5126,
            "count" : 574,
            "type" : "VEC3"
        },
        {
            "bufferView" : 11,
            "componentType" : 5123,
            "count" : 864,
            "type" : "SCALAR"
        }
    ],
    "bufferViews" : [
        {
            "buffer" : 0,
            "byteLength" : 18456,
            "byteOffset" : 0
        },
        {
            "buffer" : 0,
            "byteLength" : 18456,
            "byteOffset" : 18456
        },
        {
            "buffer" : 0,
            "byteLength" : 18432,
            "byteOffset" : 36912
        },
        {
            "buffer" : 0,
            "byteLength" : 6864,
            "byteOffset" : 55344
        },
        {
            "buffer" : 0,
            "byteLength" : 6864,
            "byteOffset" : 62208
        },
        {
            "buffer" : 0,
            "byteLength" : 1728,
            "byteOffset" : 69072
        },
        {
            "buffer" : 0,
            "byteLength" : 6744,
            "byteOffset" : 70800
        },
        {
            "buffer" : 0,
            "byteLength" : 6744,
            "byteOffset" : 77544
        },
        {
            "buffer" : 0,
            "byteLength" : 1728,
            "byteOffset" : 84288
        },
        {
            "buffer" : 0,
            "byteLength" : 6888,
            "byteOffset" : 86016
        },
        {
            "buffer" : 0,
            "byteLength" : 6888,
            "byteOffset" : 92904
        },
        {
            "buffer" : 0,
            "byteLength" : 1728,
            "byteOffset" : 99792
        }
    ],
    "buffers" : [
        {
            "byteLength" : 101520,
            "uri" : "data:application/octet-stream;base64,"
        }
    ]
}
